<?xml version="1.0" standalone="no"?>
<!DOCTYPE svg PUBLIC "-//W3C//DTD SVG 20010904//EN"
 "http://www.w3.org/TR/2001/REC-SVG-20010904/DTD/svg10.dtd">
<svg version="1.0" xmlns="http://www.w3.org/2000/svg"
 width="914.132801pt" height="819.991095pt" viewBox="0 0 914.132801 819.991095"
 preserveAspectRatio="xMidYMid meet">
<metadata>
Created by potrace 1.12, written by Peter Selinger 2001-2015
</metadata>
<g transform="translate(-106.169542,957.518170) scale(0.100000,-0.100000)"
fill="#000000" stroke="none">
<path d="M8080 9572 c-354 -42 -580 -141 -786 -346 -272 -271 -390 -641 -315
-986 32 -144 27 -188 -31 -276 -68 -103 -95 -162 -123 -270 -32 -124 -34 -250
-4 -376 19 -81 26 -95 68 -138 69 -71 98 -77 301 -54 255 28 448 21 660 -22
270 -56 576 -198 742 -343 109 -96 198 -252 243 -426 112 -431 141 -882 85
-1320 -63 -490 -171 -851 -395 -1320 -31 -66 -68 -142 -81 -170 -13 -27 -48
-81 -79 -120 -49 -61 -100 -135 -194 -280 -44 -68 -171 -224 -277 -340 -245
-267 -537 -512 -824 -690 -52 -32 -102 -64 -111 -72 -18 -15 -421 -218 -494
-249 -77 -32 -330 -120 -425 -148 -351 -101 -698 -149 -1085 -148 -344 0 -589
28 -920 103 -473 109 -985 338 -1379 617 -161 115 -149 109 -180 89 -16 -11
-26 -27 -26 -42 0 -20 22 -40 118 -107 518 -368 1054 -590 1697 -707 401 -72
926 -74 1335 -5 341 58 682 157 945 274 347 155 641 331 928 557 447 351 847
828 1098 1308 159 303 283 626 318 825 11 59 28 129 40 154 38 88 75 301 111
651 11 106 5 512 -9 605 -5 36 -12 99 -16 140 -7 81 -32 217 -70 375 -45 189
-42 346 11 590 45 212 168 549 289 795 194 392 463 672 755 784 136 52 158 65
183 105 32 52 27 105 -22 204 -97 200 -300 366 -554 453 -109 37 -322 91 -412
104 -44 6 -123 17 -176 24 -69 10 -122 25 -190 54 -138 60 -259 98 -394 122
-107 20 -285 31 -355 22z m223 -275 c244 -624 419 -1371 452 -1932 4 -60 9
-119 12 -130 3 -13 2 -17 -5 -10 -5 6 -24 69 -42 140 -33 134 -41 165 -108
375 -87 274 -248 637 -377 850 -170 280 -378 515 -582 658 -45 31 -82 60 -82
64 -2 15 140 80 224 104 l50 13 63 -62 c85 -83 169 -196 212 -284 23 -47 41
-72 52 -72 15 -1 16 3 8 24 -32 84 -138 239 -224 329 -37 38 -63 73 -59 77 14
13 125 27 233 28 l105 1 68 -173z m175 143 c49 -10 95 -22 104 -25 43 -17 148
-347 148 -466 0 -19 5 -29 15 -29 36 0 -15 259 -80 406 -14 32 -23 59 -21 62
6 6 69 -16 141 -48 33 -15 78 -34 100 -41 l40 -15 8 -139 c13 -225 12 -1063
-2 -1220 -25 -303 -45 -504 -57 -584 -8 -47 -24 -21 -24 38 0 68 -48 447 -76
611 -14 80 -42 215 -61 300 -19 85 -40 175 -45 200 -41 186 -216 719 -302 922
-9 21 -16 40 -16 43 0 10 40 5 128 -15z m737 -191 c27 -5 54 -14 59 -19 15
-15 12 -220 -3 -307 -7 -40 -21 -101 -32 -135 -22 -72 -9 -105 16 -44 33 78
55 217 55 347 0 69 2 128 5 131 9 9 282 -70 313 -91 11 -6 4 -23 -30 -77 -91
-142 -213 -369 -285 -527 -118 -261 -235 -603 -284 -827 -23 -110 -45 -147
-35 -60 39 332 52 957 30 1459 l-7 173 74 -7 c41 -4 96 -11 124 -16z m-1651
-46 c157 -112 369 -340 507 -543 98 -145 227 -386 298 -555 18 -44 37 -89 42
-100 61 -138 230 -677 217 -691 -3 -2 -29 37 -58 88 -206 363 -520 710 -879
973 -148 108 -394 253 -529 311 -62 27 -64 28 -58 58 4 17 29 77 56 134 38 76
55 102 69 102 56 0 330 -167 400 -244 24 -25 51 -35 51 -17 0 14 -101 105
-167 149 -70 47 -192 113 -241 130 l-34 12 23 32 c24 35 205 218 215 218 4 0
43 -26 88 -57z m2207 -141 c65 -39 129 -86 129 -95 0 -14 -58 -122 -100 -186
-23 -35 -74 -96 -112 -137 -39 -41 -68 -77 -64 -81 28 -28 189 162 272 321 16
31 32 56 36 56 12 0 88 -98 124 -161 41 -72 56 -113 48 -134 -3 -8 -43 -28
-87 -46 -150 -57 -245 -110 -357 -198 -188 -148 -359 -369 -495 -641 -25 -50
-49 -90 -51 -87 -7 7 58 242 113 407 83 250 209 539 335 765 75 134 145 245
155 245 5 0 29 -13 54 -28z m-2516 -520 c443 -241 841 -599 1101 -991 42 -64
88 -132 100 -150 13 -19 22 -37 19 -39 -2 -2 -37 25 -77 60 -296 257 -672 451
-1113 575 -88 25 -166 47 -172 49 -9 2 -13 24 -13 61 0 32 -7 85 -15 118 -19
79 -19 95 2 95 57 0 188 -47 326 -118 4 -2 7 3 7 11 0 30 -134 91 -265 122
-88 21 -89 21 -97 55 -10 41 0 197 13 222 8 16 12 16 52 -2 23 -10 83 -41 132
-68z m-29 -607 c594 -172 1091 -487 1352 -858 23 -33 42 -65 42 -70 0 -5 -35
23 -77 61 -335 300 -850 473 -1481 499 l-163 6 7 40 c3 22 14 63 24 91 l17 51
99 -2 c93 -1 183 -23 287 -68 30 -13 20 20 -10 34 -83 38 -225 71 -310 71 -24
0 -43 5 -43 11 0 6 21 46 48 90 47 79 47 80 83 74 20 -2 76 -16 125 -30z
m-106 -425 c493 -36 930 -181 1233 -408 78 -59 179 -153 172 -160 -2 -3 -35
14 -72 36 -199 120 -466 211 -723 247 -147 20 -384 20 -552 -1 -153 -18 -188
-14 -222 26 -28 34 -56 143 -56 219 l0 51 48 0 c26 0 103 -5 172 -10z"/>
<path d="M4920 9220 c-11 -11 -20 -29 -20 -40 0 -25 34 -60 58 -60 25 0 62 36
62 60 0 26 -34 60 -60 60 -11 0 -29 -9 -40 -20z"/>
<path d="M5162 9224 c-42 -29 -18 -104 35 -104 25 0 53 30 53 58 0 24 -32 62
-53 62 -7 0 -23 -7 -35 -16z"/>
<path d="M4692 9214 c-43 -30 -16 -104 39 -104 23 0 49 33 49 63 0 25 -31 57
-55 57 -6 0 -21 -7 -33 -16z"/>
<path d="M5387 9202 c-29 -32 -19 -78 20 -93 47 -18 94 31 72 74 -22 41 -64
50 -92 19z"/>
<path d="M4458 9189 c-21 -12 -24 -69 -6 -87 17 -17 64 -15 82 4 48 47 -17
118 -76 83z"/>
<path d="M5620 9170 c-25 -25 -26 -52 -2 -73 37 -34 102 -12 102 34 0 25 -35
59 -60 59 -11 0 -29 -9 -40 -20z"/>
<path d="M4222 9148 c-20 -20 -15 -76 7 -88 61 -32 123 37 75 84 -18 19 -65
21 -82 4z"/>
<path d="M5855 9125 c-14 -13 -25 -31 -25 -40 0 -21 36 -55 60 -55 24 0 60 34
60 55 0 18 -44 65 -60 65 -6 0 -22 -11 -35 -25z"/>
<path d="M3996 9094 c-9 -8 -16 -29 -16 -45 0 -63 102 -66 108 -3 5 55 -55 86
-92 48z"/>
<path d="M6082 9074 c-28 -19 -29 -57 -2 -84 24 -24 38 -25 68 -4 27 19 29 64
4 87 -23 21 -41 21 -70 1z"/>
<path d="M3774 9027 c-21 -19 -26 -29 -20 -50 8 -32 39 -51 72 -43 50 13 56
83 9 104 -33 15 -29 16 -61 -11z"/>
<path d="M6300 9000 c-26 -26 -25 -54 2 -80 34 -31 64 -25 87 18 9 17 9 27 0
45 -23 42 -57 49 -89 17z"/>
<path d="M3570 8963 c-21 -7 -40 -33 -40 -55 0 -24 35 -58 60 -58 25 0 60 34
60 58 -1 36 -45 67 -80 55z"/>
<path d="M6517 8912 c-22 -25 -21 -55 2 -76 27 -25 72 -17 90 15 13 24 13 29
-2 53 -21 31 -66 35 -90 8z"/>
<path d="M3349 8866 c-48 -23 -28 -106 26 -106 29 0 55 30 55 62 0 41 -42 64
-81 44z"/>
<path d="M6743 8828 c-45 -22 -37 -90 12 -102 34 -9 63 8 71 41 6 21 1 31 -20
50 -30 26 -32 26 -63 11z"/>
<path d="M3132 8754 c-24 -17 -30 -62 -10 -82 7 -7 26 -12 43 -12 17 0 36 5
43 12 18 18 14 63 -6 81 -23 21 -41 21 -70 1z"/>
<path d="M2920 8635 c-7 -8 -12 -26 -12 -40 0 -34 19 -55 52 -55 31 0 60 27
60 57 0 44 -72 71 -100 38z"/>
<path d="M4841 8545 c-26 -46 -46 -65 -114 -109 -138 -89 -160 -122 -138 -205
13 -47 6 -61 -30 -61 -27 0 -84 -27 -118 -55 -43 -37 -57 -88 -38 -144 15 -42
15 -43 -6 -49 -43 -11 -120 -58 -140 -84 -11 -15 -20 -42 -20 -60 0 -20 -8
-43 -22 -58 -12 -14 -29 -39 -37 -56 -14 -28 -13 -34 5 -70 10 -21 27 -48 37
-59 10 -11 25 -56 35 -100 9 -44 38 -165 65 -270 26 -104 55 -226 65 -270 25
-120 33 -135 81 -156 56 -25 277 -59 387 -59 88 0 301 22 387 41 66 14 116 38
129 62 6 12 47 177 91 367 45 194 91 368 105 398 14 29 25 63 25 76 0 24 -41
93 -68 112 -14 10 -14 16 -4 38 7 15 12 42 12 61 0 48 -55 107 -131 142 -33
15 -59 32 -59 38 0 61 -54 139 -125 181 -40 23 -43 27 -48 80 -3 31 -18 81
-33 111 -42 86 -158 189 -235 208 -24 6 -29 1 -58 -50z m132 -7 c86 -55 145
-142 168 -249 9 -41 8 -54 -2 -64 -20 -18 -95 -45 -143 -52 -55 -8 -241 -8
-291 -1 -87 13 -95 22 -95 107 0 37 5 49 36 78 20 18 54 43 77 54 52 27 132
102 147 140 15 35 29 33 103 -13z m225 -355 c72 -45 105 -90 117 -160 5 -33 4
-43 -7 -43 -7 0 -19 -9 -26 -20 -7 -11 -21 -20 -31 -20 -11 0 -21 -4 -23 -8
-8 -19 -167 -56 -298 -69 -125 -12 -355 -3 -384 14 -6 4 -15 8 -21 8 -30 3
-65 27 -71 50 -3 14 -12 25 -20 25 -10 0 -14 14 -14 50 0 67 37 110 116 135
50 16 68 16 150 6 169 -20 334 -7 429 34 41 18 51 18 83 -2z m194 -222 c53
-23 105 -70 113 -103 10 -38 -13 -109 -36 -115 -10 -3 -19 -11 -19 -18 0 -16
-55 -58 -79 -60 -9 -1 -23 -4 -31 -7 -8 -3 -30 -10 -49 -16 -19 -6 -38 -9 -43
-6 -5 3 -14 1 -21 -4 -7 -5 -23 -10 -37 -10 -14 0 -32 -1 -40 -3 -15 -4 -15 0
-3 44 3 9 0 17 -6 17 -6 0 -11 -11 -11 -24 0 -29 -19 -46 -51 -46 -13 0 -94
-2 -179 -3 -99 -1 -154 2 -153 8 1 6 5 18 8 28 4 10 3 17 -4 17 -6 0 -11 -9
-11 -20 0 -21 -34 -45 -51 -34 -6 3 -8 17 -5 30 8 32 -2 31 -14 -1 -7 -19 -17
-25 -40 -25 -33 0 -35 2 -19 32 6 11 8 22 5 25 -3 3 -10 -6 -15 -21 -8 -20
-17 -26 -41 -26 -29 0 -40 13 -20 25 6 3 10 12 10 18 0 7 -10 -1 -23 -17 -20
-25 -26 -27 -44 -17 -12 6 -33 11 -47 11 -31 0 -31 2 -9 38 l17 27 -31 -28
c-27 -25 -34 -27 -54 -17 l-22 12 24 19 c13 10 19 19 12 19 -6 0 -15 -4 -18
-10 -9 -14 -48 -13 -63 2 -10 10 -8 16 9 29 21 16 21 16 -10 11 -35 -5 -42 12
-13 34 16 13 16 14 0 8 -27 -9 -23 19 7 55 15 17 50 39 81 51 l56 20 33 -20
c73 -45 272 -67 450 -50 204 19 338 56 399 111 37 34 34 34 88 10z m146 -271
c44 -65 22 -151 -51 -193 -62 -37 -114 -43 -180 -22 -49 15 -57 15 -83 2 -59
-30 -114 -40 -160 -27 -36 10 -51 10 -90 -4 -60 -20 -113 -20 -163 0 -33 13
-49 14 -93 5 -43 -9 -63 -8 -108 5 -32 9 -97 17 -155 18 -79 2 -111 7 -150 24
-94 42 -133 138 -81 198 l23 28 46 -40 c82 -72 226 -97 572 -98 245 0 345 10
482 50 54 16 122 56 136 81 12 20 28 12 55 -27z m-28 -223 c0 -12 -39 -25
-127 -42 -17 -4 -48 -2 -69 4 -27 7 -34 7 -27 0 19 -19 95 -21 153 -5 30 8 57
13 58 11 3 -3 -100 -456 -139 -617 -7 -26 -19 -42 -37 -52 -31 -15 -131 -40
-137 -34 -4 4 65 601 81 699 l5 36 48 -13 c49 -12 111 -7 146 14 27 15 45 15
45 -1z m-1083 -42 l83 0 5 -30 c9 -51 63 -660 59 -664 -6 -6 -98 20 -120 34
-15 10 -25 32 -33 77 -7 35 -41 180 -77 322 -35 143 -64 268 -64 278 0 18 1
18 33 1 23 -13 54 -18 114 -18z m51 23 c-3 -8 -24 -13 -58 -13 -34 0 -55 5
-57 13 -4 9 12 12 57 12 45 0 61 -3 58 -12z m217 -16 l63 6 7 -212 c4 -116 8
-281 9 -366 l1 -155 -58 3 c-32 2 -70 7 -85 11 -31 9 -28 -13 -62 361 -11 129
-24 262 -28 296 -11 83 -9 85 45 67 30 -11 65 -14 108 -11z m548 22 c4 -4 3
-12 -1 -18 -3 -6 -8 -27 -9 -46 -6 -87 -76 -656 -82 -662 -4 -5 -41 -11 -84
-14 l-76 -7 4 49 c3 27 12 177 20 334 9 157 18 291 20 297 3 10 11 10 31 3 29
-12 116 2 144 21 12 9 11 10 -4 5 -64 -21 -111 -26 -143 -15 -32 10 -42 38
-12 31 33 -9 107 -2 139 12 40 18 44 18 53 10z m-233 -33 c0 -35 -112 -55
-174 -31 -45 17 -30 31 27 24 34 -4 65 -1 92 9 54 20 55 20 55 -2z m-105 -51
c31 0 65 5 75 10 10 6 21 7 23 3 5 -10 -31 -653 -38 -671 -3 -9 -26 -12 -82
-10 l-78 3 -10 340 c-6 187 -9 343 -7 347 2 5 16 1 32 -7 16 -8 54 -15 85 -15z"/>
<path d="M5004 8425 c23 -56 13 -73 -52 -86 l-37 -7 38 -1 c69 -2 106 63 59
101 -14 11 -15 10 -8 -7z"/>
<path d="M5050 8218 c0 -19 2 -20 10 -8 13 19 13 30 0 30 -5 0 -10 -10 -10
-22z"/>
<path d="M4740 8198 c0 -19 2 -20 10 -8 13 19 13 30 0 30 -5 0 -10 -10 -10
-22z"/>
<path d="M4785 8207 c-4 -10 -5 -21 -1 -24 10 -10 18 4 13 24 -4 17 -4 17 -12
0z"/>
<path d="M4562 8113 c-21 -8 -45 -64 -33 -76 8 -8 11 -5 11 11 0 13 11 34 25
47 24 24 23 29 -3 18z"/>
<path d="M5080 8039 c-19 -5 -80 -9 -135 -10 -88 -2 -95 -3 -55 -11 54 -11
166 -2 218 17 41 15 25 18 -28 4z"/>
<path d="M5230 7969 c0 -11 5 -17 10 -14 6 3 10 13 10 21 0 8 -4 14 -10 14 -5
0 -10 -9 -10 -21z"/>
<path d="M4492 7940 c0 -19 2 -27 5 -17 2 9 2 25 0 35 -3 9 -5 1 -5 -18z"/>
<path d="M4520 7936 c0 -8 5 -18 10 -21 6 -3 10 3 10 14 0 12 -4 21 -10 21 -5
0 -10 -6 -10 -14z"/>
<path d="M4570 7915 c0 -14 4 -25 9 -25 4 0 6 11 3 25 -2 14 -6 25 -8 25 -2 0
-4 -11 -4 -25z"/>
<path d="M4610 7906 c0 -8 5 -18 10 -21 6 -3 10 3 10 14 0 12 -4 21 -10 21 -5
0 -10 -6 -10 -14z"/>
<path d="M4830 7885 c0 -8 5 -15 10 -15 6 0 10 7 10 15 0 8 -4 15 -10 15 -5 0
-10 -7 -10 -15z"/>
<path d="M5375 7860 c-11 -12 -51 -37 -90 -56 -98 -48 -215 -68 -370 -61 -66
2 -111 1 -100 -3 11 -5 73 -9 138 -9 138 -1 246 18 332 59 60 29 140 89 119
90 -6 0 -19 -9 -29 -20z"/>
<path d="M5400 7740 c0 -11 5 -20 10 -20 6 0 10 9 10 20 0 11 -4 20 -10 20 -5
0 -10 -9 -10 -20z"/>
<path d="M5350 7705 c1 -26 2 -28 11 -12 8 14 8 22 0 30 -8 8 -11 3 -11 -18z"/>
<path d="M5290 7684 c0 -14 4 -23 10 -19 6 3 10 15 10 26 0 10 -4 19 -10 19
-5 0 -10 -12 -10 -26z"/>
<path d="M5180 7659 c0 -11 5 -17 10 -14 6 3 10 13 10 21 0 8 -4 14 -10 14 -5
0 -10 -9 -10 -21z"/>
<path d="M4937 7650 c-3 -11 -2 -20 3 -20 4 0 10 9 13 20 3 11 2 20 -3 20 -4
0 -10 -9 -13 -20z"/>
<path d="M5007 7656 c-4 -10 -5 -21 -2 -24 9 -9 17 6 13 25 -3 17 -4 17 -11
-1z"/>
<path d="M5067 7650 c-3 -11 -1 -20 4 -20 5 0 9 2 9 4 0 2 3 11 6 20 3 9 2 16
-4 16 -5 0 -12 -9 -15 -20z"/>
<path d="M4800 7638 c0 -19 2 -20 10 -8 13 19 13 30 0 30 -5 0 -10 -10 -10
-22z"/>
<path d="M4877 7654 c-4 -4 -7 -14 -7 -23 0 -11 3 -12 11 -4 6 6 10 16 7 23
-2 6 -7 8 -11 4z"/>
<path d="M5462 7620 c-119 -54 -280 -86 -497 -100 l-140 -9 150 4 c194 5 356
35 483 91 28 12 52 25 52 28 0 8 1 8 -48 -14z"/>
<path d="M4306 7541 c15 -16 108 -30 147 -21 25 5 17 8 -43 12 -41 3 -84 8
-95 13 -15 6 -17 5 -9 -4z"/>
<path d="M5410 7251 c0 -15 -36 -175 -88 -393 -5 -21 -6 -38 -2 -38 8 0 26 70
80 308 35 153 33 142 20 142 -5 0 -10 -8 -10 -19z"/>
<path d="M4360 7265 c0 -3 23 -102 50 -221 28 -119 50 -218 50 -220 0 -2 5 -4
11 -4 7 0 8 7 4 18 -4 9 -17 62 -30 117 -61 278 -71 315 -77 315 -5 0 -8 -2
-8 -5z"/>
<path d="M4585 7405 c32 -15 107 -19 138 -6 10 3 -12 7 -50 6 -37 0 -79 3 -93
7 -19 6 -18 4 5 -7z"/>
<path d="M4581 7305 c-1 -33 41 -417 46 -424 13 -17 10 33 -12 220 -26 217
-33 258 -34 204z"/>
<path d="M5050 7100 c-7 -122 -10 -223 -7 -226 7 -7 15 82 22 231 3 72 8 149
11 173 2 23 0 42 -4 42 -5 0 -15 -99 -22 -220z"/>
<path d="M5030 6789 c0 -11 5 -17 10 -14 6 3 10 13 10 21 0 8 -4 14 -10 14 -5
0 -10 -9 -10 -21z"/>
<path d="M2727 8502 c-33 -37 -8 -92 41 -92 24 0 62 32 62 53 0 49 -70 75
-103 39z"/>
<path d="M2533 8354 c-15 -24 -15 -29 -2 -53 11 -20 22 -26 49 -26 27 0 38 6
49 26 13 24 13 29 -2 53 -12 18 -26 26 -47 26 -21 0 -35 -8 -47 -26z"/>
<path d="M2353 8204 c-15 -24 -15 -29 -2 -53 28 -49 109 -32 109 24 0 54 -77
75 -107 29z"/>
<path d="M2196 8054 c-19 -18 -21 -65 -4 -82 20 -20 76 -15 88 7 32 61 -37
123 -84 75z"/>
<path d="M2037 7882 c-26 -28 -21 -69 9 -89 24 -15 29 -15 53 -2 16 9 27 25
29 43 7 55 -56 87 -91 48z"/>
<path d="M1892 7704 c-32 -22 -30 -69 4 -91 24 -15 29 -15 53 -2 36 20 41 71
9 93 -28 20 -38 20 -66 0z"/>
<path d="M1744 7505 c-35 -54 18 -116 71 -81 17 11 25 25 25 46 0 58 -65 82
-96 35z"/>
<path d="M1620 7315 c-7 -8 -12 -26 -12 -40 0 -34 19 -55 52 -55 31 0 60 27
60 57 0 44 -72 71 -100 38z"/>
<path d="M1510 7110 c-27 -27 -26 -65 2 -84 32 -23 54 -20 77 10 27 34 26 40
-4 69 -29 30 -49 31 -75 5z"/>
<path d="M1410 6900 c-27 -27 -26 -65 2 -84 29 -21 51 -20 71 2 24 26 21 68
-5 86 -30 21 -44 20 -68 -4z"/>
<path d="M1316 6678 c-28 -39 -14 -79 31 -93 17 -4 29 1 48 19 30 30 32 49 5
76 -27 27 -65 26 -84 -2z"/>
<path d="M1247 6462 c-35 -38 -9 -102 40 -102 47 0 71 71 35 103 -24 22 -55
21 -75 -1z"/>
<path d="M1793 6409 c-123 -39 -215 -156 -249 -319 -22 -102 -14 -304 15 -415
28 -108 86 -225 111 -225 33 0 32 18 -9 102 -92 194 -106 468 -30 624 59 124
211 200 283 143 72 -57 86 -145 93 -585 5 -337 -3 -623 -29 -976 -12 -176 -6
-208 41 -228 33 -13 75 0 90 29 17 30 29 134 62 526 51 613 77 829 119 995 34
135 90 240 126 240 15 0 42 -56 55 -117 5 -26 14 -235 19 -463 9 -425 15 -482
55 -560 19 -37 62 -70 91 -70 80 0 100 57 159 469 67 456 116 632 198 709 36
34 68 26 92 -23 32 -64 32 -284 1 -665 -42 -517 -50 -681 -37 -783 21 -158 68
-254 139 -284 90 -37 176 37 296 258 126 231 168 299 217 352 l46 51 0 -110
c-1 -144 21 -205 102 -284 87 -86 170 -102 276 -52 103 49 222 174 357 375 56
83 59 90 43 106 -15 15 -18 14 -38 -10 -12 -14 -51 -68 -87 -120 -76 -111
-239 -278 -294 -303 -33 -15 -45 -16 -77 -7 -71 21 -109 99 -109 222 l0 49 71
45 c138 89 218 200 206 288 -15 110 -165 139 -291 55 -53 -35 -117 -126 -136
-193 -10 -36 -15 -43 -22 -31 -15 27 -34 18 -82 -35 -50 -56 -109 -150 -206
-332 -82 -152 -121 -199 -164 -195 -26 3 -35 11 -56 53 -25 49 -25 53 -24 295
0 181 7 324 27 547 28 318 35 582 16 687 -23 134 -82 195 -175 181 -95 -14
-177 -117 -233 -293 -41 -128 -64 -244 -106 -536 -42 -290 -55 -350 -68 -337
-7 7 -16 182 -24 443 -12 429 -17 489 -48 594 -53 183 -223 172 -311 -20 -44
-97 -110 -404 -115 -536 l-1 -35 -8 30 c-4 17 -8 62 -9 101 -1 99 -19 264 -36
351 -41 207 -151 280 -332 222z m2345 -1016 c28 -49 -61 -175 -168 -237 l-33
-19 7 39 c11 62 63 164 102 200 38 37 77 44 92 17z"/>
<path d="M5038 6420 c-158 -48 -335 -366 -422 -761 -66 -298 -75 -665 -20
-884 23 -94 70 -182 115 -214 143 -104 262 8 481 454 86 176 97 208 79 219
-21 14 -39 -11 -88 -117 -72 -155 -158 -312 -221 -402 -61 -87 -85 -95 -133
-44 -55 59 -87 214 -92 439 l-2 135 86 135 c164 257 297 516 361 700 37 107
49 240 25 287 -27 52 -99 74 -169 53z m117 -97 c43 -42 -11 -229 -139 -489
-76 -155 -222 -411 -261 -459 l-16 -20 5 20 c2 11 7 47 11 80 32 297 194 713
331 850 40 40 46 42 69 18z"/>
<path d="M6313 6410 c-59 -35 -178 -309 -229 -524 l-18 -78 -45 6 c-63 9 -142
47 -194 95 -51 47 -77 53 -77 16 0 -49 155 -148 253 -161 54 -8 53 -1 31 -129
-8 -49 -17 -191 -20 -315 -5 -182 -3 -247 10 -338 35 -239 109 -393 212 -442
116 -57 173 12 264 317 79 264 102 327 110 312 4 -8 10 -61 14 -119 9 -148 40
-290 67 -312 56 -46 107 -7 134 102 70 290 198 550 270 550 42 0 45 -97 10
-330 -32 -210 -41 -371 -26 -428 7 -23 25 -57 40 -74 24 -27 35 -31 74 -31 87
0 166 78 278 276 81 142 191 384 187 411 -5 35 -32 24 -55 -24 -12 -25 -61
-124 -108 -220 -89 -181 -169 -308 -218 -344 -29 -21 -29 -21 -44 -1 -21 28
-12 135 27 345 35 186 48 363 31 426 -14 52 -53 92 -98 100 -143 27 -277 -155
-389 -525 -8 -27 -13 -5 -24 122 l-12 127 52 57 c118 132 275 406 348 608 l30
80 90 3 c148 5 308 -52 356 -125 22 -34 42 -47 57 -37 35 21 -30 105 -118 152
-75 39 -159 60 -273 69 l-92 6 6 31 c19 88 25 180 16 226 -11 61 -20 77 -55
110 -23 22 -36 25 -95 25 -62 0 -73 -3 -118 -35 -95 -67 -164 -172 -233 -356
-23 -60 -43 -111 -45 -113 -14 -15 -314 -91 -416 -105 l-47 -7 24 88 c29 108
58 187 119 319 53 117 60 173 24 198 -29 21 -46 20 -85 -4z m865 -95 c17 -36
15 -144 -3 -224 l-16 -67 -107 -17 c-59 -9 -117 -20 -129 -23 -23 -6 -23 -6
-8 35 20 57 80 175 115 226 62 90 126 120 148 70z m-43 -367 c-33 -108 -144
-337 -222 -458 -57 -87 -133 -184 -139 -177 -2 2 1 55 7 118 11 127 47 319 79
421 l20 67 73 16 c60 13 135 27 180 34 5 0 5 -9 2 -21z m-474 -199 c-23 -121
-37 -249 -47 -405 -5 -95 -8 -111 -23 -110 -24 2 -52 -65 -121 -294 -69 -230
-101 -310 -125 -310 -40 0 -94 88 -124 202 -53 198 -62 537 -21 808 20 127 13
117 87 125 64 7 248 49 343 79 25 7 46 12 48 11 2 -2 -6 -49 -17 -106z"/>
<path d="M1182 6238 c-16 -16 -16 -70 0 -86 17 -17 64 -15 82 4 35 34 6 94
-45 94 -14 0 -30 -5 -37 -12z"/>
<path d="M1136 6004 c-36 -36 -9 -94 44 -94 43 0 69 67 38 98 -17 17 -64 15
-82 -4z"/>
<path d="M1106 5777 c-21 -16 -24 -60 -6 -82 16 -20 64 -19 84 1 50 50 -21
123 -78 81z"/>
<path d="M5430 5706 c-35 -43 19 -97 103 -104 46 -4 58 -1 76 17 44 44 -21
101 -117 101 -31 0 -54 -5 -62 -14z"/>
<path d="M1087 5542 c-35 -38 -9 -102 40 -102 47 0 71 71 35 103 -24 22 -55
21 -75 -1z"/>
<path d="M5415 5490 c-35 -13 -46 -35 -65 -128 -47 -231 -52 -552 -10 -685 25
-81 67 -133 120 -147 103 -28 177 62 372 449 104 207 117 237 104 250 -11 11
-18 12 -29 3 -7 -6 -66 -116 -130 -244 -163 -324 -204 -374 -261 -313 -63 68
-63 311 1 629 21 106 23 132 13 151 -20 38 -70 54 -115 35z"/>
<path d="M7950 5479 c-40 -16 -75 -42 -126 -93 -85 -85 -136 -182 -161 -301
-40 -198 46 -365 187 -365 96 1 173 64 244 200 l43 82 7 -51 c19 -147 89 -231
191 -231 95 0 206 114 360 370 62 103 74 139 50 147 -18 5 -30 -10 -85 -102
-76 -129 -151 -233 -205 -285 -44 -43 -46 -44 -72 -30 -15 8 -36 31 -47 50
-19 32 -21 51 -21 200 1 130 5 185 22 260 26 118 17 148 -50 165 -31 8 -83
-10 -91 -31 -4 -11 -13 -10 -45 7 -60 31 -135 34 -201 8z m203 -77 c14 -16 14
-27 -3 -137 -39 -257 -171 -488 -262 -460 -35 12 -62 89 -61 180 2 161 89 329
212 407 51 32 91 36 114 10z"/>
<path d="M1086 5309 c-46 -36 -23 -99 37 -99 27 0 57 32 57 61 0 16 -44 59
-60 59 -4 0 -19 -9 -34 -21z"/>
<path d="M1087 5072 c-10 -10 -17 -28 -17 -40 0 -50 75 -72 104 -30 21 30 20
44 -4 68 -25 25 -62 26 -83 2z"/>
<path d="M1124 4852 c-6 -4 -16 -17 -23 -29 -18 -36 11 -82 52 -83 23 0 57 35
57 60 0 40 -55 73 -86 52z"/>
<path d="M1150 4610 c-11 -11 -20 -29 -20 -40 0 -11 9 -29 20 -40 11 -11 29
-20 40 -20 11 0 29 9 40 20 11 11 20 29 20 40 0 11 -9 29 -20 40 -11 11 -29
20 -40 20 -11 0 -29 -9 -40 -20z"/>
<path d="M1199 4379 c-15 -15 -19 -28 -14 -47 8 -34 13 -39 47 -47 19 -5 32
-1 47 14 26 26 27 55 1 81 -26 26 -55 25 -81 -1z"/>
<path d="M1260 4151 c-32 -61 37 -123 84 -75 19 18 21 65 4 82 -20 20 -76 15
-88 -7z"/>
<path d="M1342 3938 c-17 -17 -15 -64 4 -82 48 -49 117 13 84 75 -12 22 -68
27 -88 7z"/>
<path d="M3080 3700 l0 -220 70 0 c62 0 74 3 95 25 25 24 25 27 25 195 0 168
0 171 -25 195 -21 22 -33 25 -95 25 l-70 0 0 -220z m134 174 c13 -13 16 -43
16 -174 0 -178 -4 -190 -66 -190 l-34 0 0 190 0 190 34 0 c19 0 42 -7 50 -16z"/>
<path d="M3360 3717 c0 -149 3 -208 13 -221 10 -14 26 -16 92 -14 l80 3 3 218
c2 212 2 217 -18 217 -19 0 -20 -6 -20 -205 l0 -205 -50 0 -50 0 0 205 0 205
-25 0 -25 0 0 -203z"/>
<path d="M3640 3700 l0 -220 75 0 c60 0 75 3 75 15 0 11 -12 15 -50 15 l-50 0
0 205 0 205 -25 0 -25 0 0 -220z"/>
<path d="M3882 3908 c-17 -17 -17 -387 1 -412 10 -14 25 -16 87 -14 l75 3 3
68 c3 62 1 67 -18 67 -18 0 -20 -6 -20 -55 l0 -55 -45 0 -45 0 0 190 0 190 45
0 45 0 0 -50 c0 -44 3 -50 20 -50 19 0 21 5 18 63 l-3 62 -75 3 c-50 2 -79 -1
-88 -10z"/>
<path d="M4140 3700 l0 -220 75 0 c60 0 75 3 75 15 0 11 -12 15 -50 15 l-50 0
0 90 0 90 45 0 c33 0 45 4 45 15 0 11 -12 15 -45 15 l-45 0 0 85 0 85 50 0
c38 0 50 4 50 15 0 12 -15 15 -75 15 l-75 0 0 -220z"/>
<path d="M4392 3908 c-7 -7 -12 -36 -12 -64 0 -55 7 -68 107 -190 28 -35 33
-49 33 -93 l0 -51 -50 0 -50 0 0 55 c0 48 -2 55 -20 55 -18 0 -20 -7 -20 -58
0 -32 5 -63 12 -70 7 -7 40 -12 78 -12 38 0 71 5 78 12 7 7 12 39 12 74 0 61
0 62 -70 147 -64 78 -70 89 -70 131 l0 46 50 0 50 0 0 -50 c0 -43 3 -50 20
-50 17 0 20 7 20 53 0 29 -5 58 -12 65 -16 16 -140 16 -156 0z"/>
<path d="M4811 3901 c-16 -30 -14 -382 2 -405 10 -14 25 -16 87 -14 l75 3 3
68 c3 62 1 67 -18 67 -18 0 -20 -6 -20 -55 l0 -55 -45 0 -45 0 0 190 0 190 45
0 45 0 0 -50 c0 -44 3 -50 20 -50 19 0 21 5 18 63 l-3 62 -77 3 c-68 2 -78 1
-87 -17z"/>
<path d="M5070 3700 l0 -220 25 0 25 0 0 205 0 205 50 0 50 0 0 -80 0 -80 -41
0 c-29 0 -40 -4 -37 -12 3 -7 22 -64 42 -125 31 -92 41 -113 57 -113 25 0 25
3 -16 117 -19 54 -35 99 -35 101 0 1 10 2 23 2 39 0 47 18 47 110 0 54 -5 91
-12 98 -7 7 -44 12 -95 12 l-83 0 0 -220z"/>
<path d="M5350 3700 l0 -220 75 0 c60 0 75 3 75 15 0 11 -12 15 -50 15 l-50 0
0 90 0 90 45 0 c33 0 45 4 45 15 0 11 -12 15 -45 15 l-45 0 0 85 0 85 50 0
c38 0 50 4 50 15 0 12 -15 15 -75 15 l-75 0 0 -220z"/>
<path d="M5621 3728 c-19 -106 -36 -205 -39 -220 -3 -23 -1 -28 16 -28 17 0
21 9 27 50 l7 50 44 0 43 0 7 -50 c5 -40 10 -50 25 -50 11 0 19 6 19 13 0 6
-16 105 -36 220 -35 192 -39 207 -58 207 -20 0 -24 -14 -55 -192z m84 -70 l7
-48 -36 0 c-20 0 -36 5 -36 10 0 6 8 57 17 113 l17 102 12 -65 c7 -36 15 -86
19 -112z"/>
<path d="M5861 3901 c-16 -30 -14 -382 2 -405 10 -14 25 -16 87 -14 l75 3 3
68 c3 62 1 67 -18 67 -18 0 -20 -6 -20 -55 l0 -55 -45 0 -45 0 0 190 0 190 45
0 45 0 0 -50 c0 -44 3 -50 20 -50 19 0 21 5 18 63 l-3 62 -77 3 c-68 2 -78 1
-87 -17z"/>
<path d="M6140 3700 c0 -213 1 -220 20 -220 19 0 20 7 20 220 0 213 -1 220
-20 220 -19 0 -20 -7 -20 -220z"/>
<path d="M6281 3901 c-16 -30 -14 -382 2 -405 10 -14 26 -16 92 -14 l80 3 0
215 0 215 -82 3 c-73 2 -83 1 -92 -17z m139 -201 l0 -190 -50 0 -50 0 0 190 0
190 50 0 50 0 0 -190z"/>
<path d="M6560 3700 c0 -212 1 -220 20 -220 18 0 20 8 22 158 l3 157 56 -155
c82 -224 89 -220 89 59 0 214 -1 221 -20 221 -19 0 -20 -7 -21 -152 l0 -153
-57 153 c-44 117 -61 152 -74 152 -17 0 -18 -16 -18 -220z"/>
<path d="M6840 3700 l0 -220 75 0 c60 0 75 3 75 15 0 11 -12 15 -50 15 l-50 0
0 90 0 90 45 0 c33 0 45 4 45 15 0 11 -12 15 -45 15 l-45 0 0 85 0 85 50 0
c38 0 50 4 50 15 0 12 -15 15 -75 15 l-75 0 0 -220z"/>
<path d="M7092 3908 c-7 -7 -12 -36 -12 -64 0 -55 7 -68 107 -190 28 -35 33
-49 33 -93 l0 -51 -50 0 -50 0 0 55 c0 48 -2 55 -20 55 -18 0 -20 -7 -20 -59
0 -76 9 -83 102 -79 l73 3 3 71 3 71 -71 85 c-64 79 -70 90 -70 132 l0 46 50
0 50 0 0 -50 c0 -43 3 -50 20 -50 17 0 20 7 20 53 0 29 -5 58 -12 65 -16 16
-140 16 -156 0z"/>
<path d="M1437 3722 c-25 -28 -21 -69 8 -88 29 -19 60 -11 81 21 36 55 -45
115 -89 67z"/>
<path d="M1546 3517 c-26 -19 -24 -67 4 -89 55 -44 124 38 72 85 -22 20 -52
22 -76 4z"/>
<path d="M1660 3310 c-11 -11 -20 -29 -20 -40 0 -11 9 -29 20 -40 11 -11 29
-20 40 -20 11 0 29 9 40 20 11 11 20 29 20 40 0 11 -9 29 -20 40 -11 11 -29
20 -40 20 -11 0 -29 -9 -40 -20z"/>
<path d="M1787 3112 c-22 -25 -21 -55 2 -76 27 -25 72 -17 90 15 13 24 13 29
-2 53 -21 31 -66 35 -90 8z"/>
<path d="M1930 2930 c-11 -11 -20 -29 -20 -40 0 -28 35 -60 64 -60 26 0 56 33
56 60 0 23 -37 60 -60 60 -11 0 -29 -9 -40 -20z"/>
<path d="M2080 2750 c-26 -26 -25 -46 5 -75 29 -30 49 -31 75 -5 27 27 26 65
-2 84 -30 21 -54 20 -78 -4z"/>
<path d="M2246 2584 c-25 -25 -20 -71 10 -91 24 -15 29 -15 53 -2 16 9 27 25
29 43 6 53 -55 87 -92 50z"/>
</g>
</svg>
