<svg xmlns="http://www.w3.org/2000/svg" xmlns:xlink="http://www.w3.org/1999/xlink" width="329" zoomAndPan="magnify" viewBox="0 0 246.75 185.249993" height="247" preserveAspectRatio="xMidYMid meet" version="1.0"><defs><g/><clipPath id="3d4f6c3d3f"><path d="M 0.371094 0 L 246.128906 0 L 246.128906 184.503906 L 0.371094 184.503906 Z M 0.371094 0 " clip-rule="nonzero"/></clipPath><clipPath id="803d7cc1c4"><path d="M 0.371094 85.960938 L 53.542969 85.960938 L 53.542969 98.671875 L 0.371094 98.671875 Z M 0.371094 85.960938 " clip-rule="nonzero"/></clipPath><clipPath id="0bda924826"><path d="M 38.5625 87.734375 L 49.777344 87.734375 L 49.777344 100.449219 L 38.5625 100.449219 Z M 38.5625 87.734375 " clip-rule="nonzero"/></clipPath><clipPath id="4dd38ddd8b"><path d="M 42.011719 93.265625 L 74.164062 93.265625 L 74.164062 99.25 L 42.011719 99.25 Z M 42.011719 93.265625 " clip-rule="nonzero"/></clipPath><clipPath id="1925b23f29"><path d="M 0.371094 45.882812 L 82.101562 45.882812 L 82.101562 72.050781 L 0.371094 72.050781 Z M 0.371094 45.882812 " clip-rule="nonzero"/></clipPath><clipPath id="a4af8ec07a"><path d="M 0.371094 66.632812 L 32.003906 66.632812 L 32.003906 119.71875 L 0.371094 119.71875 Z M 0.371094 66.632812 " clip-rule="nonzero"/></clipPath><clipPath id="b4d91d06d3"><path d="M 0.371094 86.714844 L 49.738281 86.714844 L 49.738281 99.425781 L 0.371094 99.425781 Z M 0.371094 86.714844 " clip-rule="nonzero"/></clipPath><clipPath id="366cab0982"><path d="M 0.371094 40.429688 L 52.734375 40.429688 L 52.734375 86.789062 L 0.371094 86.789062 Z M 0.371094 40.429688 " clip-rule="nonzero"/></clipPath><clipPath id="319d46a3cf"><path d="M 0.371094 86.457031 L 27.449219 86.457031 L 27.449219 132.816406 L 0.371094 132.816406 Z M 0.371094 86.457031 " clip-rule="nonzero"/></clipPath><clipPath id="eb7db99937"><path d="M 21.71875 96.269531 L 225.105469 96.269531 L 225.105469 117.953125 L 21.71875 117.953125 Z M 21.71875 96.269531 " clip-rule="nonzero"/></clipPath></defs><g clip-path="url(#3d4f6c3d3f)"><path fill="#ffffff" d="M 0.371094 0 L 246.378906 0 L 246.378906 184.691406 L 0.371094 184.691406 Z M 0.371094 0 " fill-opacity="1" fill-rule="nonzero"/><path fill="#000000" d="M 0.371094 0 L 246.378906 0 L 246.378906 184.691406 L 0.371094 184.691406 Z M 0.371094 0 " fill-opacity="1" fill-rule="nonzero"/></g><g clip-path="url(#803d7cc1c4)"><path fill="#000000" d="M -53.382812 85.960938 L 53.539062 85.960938 L 53.539062 98.671875 L -53.382812 98.671875 L -53.382812 85.960938 " fill-opacity="1" fill-rule="nonzero"/></g><g clip-path="url(#0bda924826)"><path fill="#000000" d="M 38.5625 87.738281 L 49.777344 87.738281 L 49.777344 100.445312 L 38.5625 100.445312 L 38.5625 87.738281 " fill-opacity="1" fill-rule="nonzero"/></g><g clip-path="url(#4dd38ddd8b)"><path fill="#000000" d="M 42.035156 93.265625 L 74.144531 93.265625 L 74.144531 99.25 L 42.035156 99.25 L 42.035156 93.265625 " fill-opacity="1" fill-rule="nonzero"/></g><g clip-path="url(#1925b23f29)"><path fill="#000000" d="M -24.808594 45.882812 L 82.082031 45.882812 L 82.082031 72.050781 L -24.808594 72.050781 L -24.808594 45.882812 " fill-opacity="1" fill-rule="nonzero"/></g><g clip-path="url(#a4af8ec07a)"><path fill="#000000" d="M -24.824219 66.636719 L 32.003906 66.636719 L 32.003906 119.714844 L -24.824219 119.714844 L -24.824219 66.636719 " fill-opacity="1" fill-rule="nonzero"/></g><g clip-path="url(#b4d91d06d3)"><path fill="#000000" d="M -57.1875 86.714844 L 49.738281 86.714844 L 49.738281 99.425781 L -57.1875 99.425781 L -57.1875 86.714844 " fill-opacity="1" fill-rule="nonzero"/></g><g clip-path="url(#366cab0982)"><path fill="#000000" d="M -28.761719 40.429688 L 52.730469 40.429688 L 52.730469 86.789062 L -28.761719 86.789062 L -28.761719 40.429688 " fill-opacity="1" fill-rule="nonzero"/></g><g clip-path="url(#319d46a3cf)"><path fill="#000000" d="M -54.046875 86.457031 L 27.445312 86.457031 L 27.445312 132.816406 L -54.046875 132.816406 L -54.046875 86.457031 " fill-opacity="1" fill-rule="nonzero"/></g><g fill="#fdfdfd" fill-opacity="1"><g transform="translate(20.838042, 151.964188)"><g><path d="M 66.515625 -2.921875 L 55.28125 -36.1875 L 24.78125 -36.1875 L 12.9375 -2.921875 L 24.484375 -2.921875 L 24.484375 0 L 0.921875 0 L 0.921875 -2.921875 L 8.15625 -2.921875 L 47.421875 -108.703125 L 60.046875 -108.703125 L 98.84375 -2.921875 L 105.9375 -2.921875 L 105.9375 0 L 55.578125 0 L 55.578125 -2.921875 Z M 40.640625 -79.90625 L 26.171875 -39.5625 L 54.046875 -39.5625 Z M 40.640625 -79.90625 "/></g></g></g><g fill="#fdfdfd" fill-opacity="1"><g transform="translate(127.688178, 151.964188)"><g><path d="M 2.3125 -107.78125 L 47.578125 -107.78125 C 63.078125 -107.78125 74.625 -105.546875 82.21875 -101.078125 C 89.8125 -96.617188 93.609375 -88.640625 93.609375 -77.140625 C 93.609375 -64.410156 88.988281 -55.632812 79.75 -50.8125 C 71.132812 -46.394531 59.078125 -44.1875 43.578125 -44.1875 L 42.34375 -44.1875 L 42.34375 -2.921875 L 61.59375 -2.921875 L 61.59375 0 L 2.3125 0 L 2.3125 -2.921875 L 12.3125 -2.921875 L 12.3125 -104.859375 L 2.3125 -104.859375 Z M 42.34375 -104.859375 L 42.34375 -47.109375 L 45.578125 -47.109375 C 51.734375 -47.109375 55.988281 -49.210938 58.34375 -53.421875 C 60.707031 -57.628906 61.890625 -64.457031 61.890625 -73.90625 L 61.890625 -81.296875 C 61.890625 -90.023438 60.785156 -96.132812 58.578125 -99.625 C 56.378906 -103.113281 52.351562 -104.859375 46.5 -104.859375 Z M 42.34375 -104.859375 "/></g></g></g><g clip-path="url(#eb7db99937)"><path fill="#000000" d="M 21.726562 96.269531 L 225.097656 96.269531 L 225.097656 117.953125 L 21.726562 117.953125 L 21.726562 96.269531 " fill-opacity="1" fill-rule="nonzero"/></g><g fill="#fdfdfd" fill-opacity="1"><g transform="translate(67.897214, 112.089798)"><g><path d="M 8.707031 6.429688 C 8.191406 5.363281 8.03125 3.363281 8.074219 0.910156 C 8.113281 -1.246094 8.410156 -3.796875 8.84375 -6.273438 C 9.617188 -6.371094 10.445312 -6.449219 11.316406 -6.449219 C 12.304688 -6.449219 12.917969 -6.074219 13.136719 -6.074219 C 13.574219 -6.074219 13.019531 -6.886719 11.121094 -6.886719 C 10.40625 -6.886719 9.65625 -6.824219 8.921875 -6.726562 C 9.457031 -9.675781 10.210938 -12.503906 11 -14.441406 C 11.21875 -14.996094 10.210938 -14.957031 9.890625 -14.441406 C 9.21875 -13.335938 5.699219 -9.914062 3.582031 -5.660156 C 2.949219 -5.519531 2.433594 -5.441406 2.039062 -5.441406 C 0.929688 -5.441406 0.335938 -5.894531 0.335938 -6.707031 C 0.335938 -7.203125 0.832031 -7.816406 1.425781 -7.816406 C 1.800781 -7.816406 1.523438 -8.09375 1.1875 -8.09375 C 0.335938 -8.09375 -0.394531 -7.359375 -0.394531 -6.488281 C -0.394531 -5.519531 0.613281 -4.945312 1.839844 -4.945312 C 2.316406 -4.945312 2.808594 -5.003906 3.304688 -5.085938 C 2.472656 -3.246094 1.898438 -1.265625 1.957031 0.75 C 1.976562 1.523438 2.078125 2.058594 2.355469 2.570312 C 2.632812 3.085938 2.828125 3.066406 2.730469 2.632812 C 2.53125 1.78125 2.511719 1.363281 2.511719 0.453125 C 2.511719 -1.464844 3.105469 -3.402344 3.976562 -5.203125 C 5.125 -5.460938 6.351562 -5.816406 7.734375 -6.074219 C 7.339844 -3.71875 7.082031 -1.285156 7.042969 0.910156 C 7.003906 3.246094 7.417969 5.105469 7.933594 6.113281 C 8.210938 6.609375 8.882812 6.785156 8.707031 6.429688 Z M 4.273438 -5.796875 C 5.777344 -8.6875 7.914062 -11.179688 9.300781 -12.664062 C 8.726562 -10.863281 8.210938 -8.746094 7.816406 -6.550781 C 6.550781 -6.332031 5.320312 -6.035156 4.273438 -5.796875 Z M 4.273438 -5.796875 "/></g></g></g><g fill="#fdfdfd" fill-opacity="1"><g transform="translate(81.565046, 112.089798)"><g><path d="M 5.5 0.632812 C 6.84375 0.632812 10.683594 -5.027344 10.800781 -5.34375 C 10.921875 -5.660156 10.84375 -5.996094 10.585938 -5.617188 C 9.675781 -4.234375 6.488281 -0.0195312 5.699219 -0.0195312 C 5.5 -0.0195312 5.320312 -0.574219 5.320312 -1.703125 C 5.320312 -4.828125 6.292969 -9.0625 8.328125 -12.664062 C 8.585938 -13.117188 7.242188 -13.234375 6.84375 -12.148438 C 6.351562 -10.800781 5.757812 -9.476562 5.125 -8.269531 C 5.085938 -8.410156 4.730469 -8.585938 4.3125 -8.585938 C 2.316406 -8.585938 -0.355469 -5.679688 -0.355469 -3.402344 C -0.355469 -2.375 0.238281 -2.078125 0.75 -2.078125 C 1.820312 -2.078125 3.5 -4.292969 4.609375 -6.074219 C 4.273438 -4.472656 4.234375 -3.144531 4.234375 -2.375 C 4.234375 -0.613281 4.75 0.632812 5.5 0.632812 Z M 0.59375 -3.183594 C 0.59375 -5.894531 3.757812 -8.132812 4.867188 -8.132812 C 4.964844 -8.132812 5.027344 -8.152344 5.085938 -8.171875 C 3.460938 -5.046875 1.683594 -2.710938 0.851562 -2.710938 C 0.691406 -2.710938 0.59375 -2.867188 0.59375 -3.183594 Z M 0.59375 -3.183594 "/></g></g></g><g fill="#fdfdfd" fill-opacity="1"><g transform="translate(91.712079, 112.089798)"><g><path d="M 2.296875 2 C 2.710938 2 2 1.683594 2.097656 0.316406 C 2.214844 -1.425781 3.660156 -3.5 3.660156 -4.570312 C 3.660156 -5.164062 3.324219 -5.660156 2.234375 -5.617188 C 1.621094 -5.597656 1.128906 -5.519531 0.792969 -5.640625 C 1.542969 -6.6875 1.878906 -7.359375 1.878906 -7.734375 C 1.878906 -8.074219 1.582031 -8.25 1.304688 -8.25 C 0.238281 -8.25 -0.375 -7.101562 -0.375 -6.429688 C -0.375 -5.578125 0.316406 -5.164062 1.523438 -5.164062 C 2.355469 -5.164062 2.433594 -5.144531 2.375 -4.628906 C 2.273438 -3.820312 1.207031 -1.742188 1.226562 -0.0976562 C 1.246094 1.027344 1.839844 2 2.296875 2 Z M 0.375 -6.449219 C 0.375 -7.101562 0.949219 -7.714844 1.1875 -7.714844 C 1.386719 -7.714844 0.871094 -6.449219 0.476562 -5.894531 C 0.414062 -6.035156 0.375 -6.210938 0.375 -6.449219 Z M 0.375 -6.449219 "/></g></g></g><g fill="#fdfdfd" fill-opacity="1"><g transform="translate(99.129493, 112.089798)"><g><path d="M 0.414062 -1.425781 C 0.652344 -1.1875 0.792969 -1.363281 0.710938 -1.601562 C 0.496094 -2.234375 0.59375 -3.621094 1.464844 -6.035156 C 1.640625 -6.550781 0.574219 -6.230469 0.414062 -5.777344 C -0.496094 -3.304688 -0.160156 -2 0.414062 -1.425781 Z M 0.574219 -7.894531 C 0.574219 -7.597656 0.691406 -7.457031 0.871094 -7.457031 C 1.445312 -7.457031 2.078125 -8.171875 2.078125 -8.527344 C 2.078125 -9.042969 1.246094 -9.238281 0.929688 -8.824219 C 0.710938 -8.546875 0.574219 -8.113281 0.574219 -7.894531 Z M 0.574219 -7.894531 "/></g></g></g><g fill="#fdfdfd" fill-opacity="1"><g transform="translate(104.153561, 112.089798)"><g><path d="M 3.5 -0.0195312 C 5.164062 -0.0195312 8.980469 -4.433594 9.359375 -5.34375 C 9.535156 -5.796875 9.320312 -5.914062 9.140625 -5.617188 C 8.328125 -4.253906 4.707031 -0.496094 3.582031 -0.496094 C 3.207031 -0.496094 2.988281 -0.949219 2.988281 -1.917969 C 2.988281 -3.183594 3.144531 -4.667969 4.195312 -7.164062 C 4.390625 -7.636719 3.207031 -7.519531 2.988281 -7.042969 C 1.683594 -4.214844 0.433594 -2.929688 0.0195312 -2.929688 C -0.394531 -2.929688 1.007812 -6.527344 2.632812 -6.527344 C 2.847656 -6.527344 2.730469 -6.824219 2.375 -6.824219 C 0.832031 -6.824219 -0.792969 -4.867188 -0.792969 -3.382812 C -0.792969 -2.789062 -0.476562 -2.472656 -0.078125 -2.472656 C 0.671875 -2.472656 1.523438 -3.582031 2.175781 -4.453125 C 1.820312 -2.632812 2.15625 -0.0195312 3.5 -0.0195312 Z M 3.5 -0.0195312 "/></g></g></g><g fill="#fdfdfd" fill-opacity="1"><g transform="translate(112.856666, 112.089798)"><g><path d="M 5.914062 1.621094 C 6.390625 1.621094 6.488281 1.386719 6.191406 1.386719 C 4.964844 1.386719 4.769531 -0.910156 5.363281 -4.6875 C 5.597656 -6.230469 5.222656 -7.042969 4.492188 -7.042969 C 2.988281 -7.042969 1.304688 -4.15625 1.226562 -4.15625 C 1.089844 -4.15625 1.128906 -4.886719 1.246094 -6.035156 C 1.285156 -6.46875 0.453125 -6.113281 0.316406 -5.480469 C 0.0390625 -4.175781 0.515625 -3.441406 0.988281 -3.441406 C 1.582031 -3.441406 3.226562 -6.46875 4.074219 -6.46875 C 4.492188 -6.46875 3.898438 -4.371094 3.898438 -2.59375 C 3.898438 -0.257812 4.53125 1.621094 5.914062 1.621094 Z M 5.914062 1.621094 "/></g></g></g><g fill="#fdfdfd" fill-opacity="1"><g transform="translate(121.975144, 112.089798)"><g><path d="M 3.5 -0.0195312 C 5.164062 -0.0195312 8.980469 -4.433594 9.359375 -5.34375 C 9.535156 -5.796875 9.320312 -5.914062 9.140625 -5.617188 C 8.328125 -4.253906 4.707031 -0.496094 3.582031 -0.496094 C 3.207031 -0.496094 2.988281 -0.949219 2.988281 -1.917969 C 2.988281 -3.183594 3.144531 -4.667969 4.195312 -7.164062 C 4.390625 -7.636719 3.207031 -7.519531 2.988281 -7.042969 C 1.683594 -4.214844 0.433594 -2.929688 0.0195312 -2.929688 C -0.394531 -2.929688 1.007812 -6.527344 2.632812 -6.527344 C 2.847656 -6.527344 2.730469 -6.824219 2.375 -6.824219 C 0.832031 -6.824219 -0.792969 -4.867188 -0.792969 -3.382812 C -0.792969 -2.789062 -0.476562 -2.472656 -0.078125 -2.472656 C 0.671875 -2.472656 1.523438 -3.582031 2.175781 -4.453125 C 1.820312 -2.632812 2.15625 -0.0195312 3.5 -0.0195312 Z M 3.5 -0.0195312 "/></g></g></g><g fill="#fdfdfd" fill-opacity="1"><g transform="translate(130.678249, 112.089798)"><g/></g></g><g fill="#fdfdfd" fill-opacity="1"><g transform="translate(142.546119, 112.089798)"><g><path d="M 4.6875 1.285156 C 4.6875 0.613281 5.046875 -0.8125 5.519531 -2.394531 L 5.558594 -2.394531 C 9.714844 -2.394531 14.878906 -6.390625 14.878906 -10.445312 C 14.878906 -12.089844 13.375 -14.144531 10.128906 -14.144531 C 4.015625 -14.144531 -1.660156 -8.644531 -1.660156 -4.984375 C -1.660156 -4.472656 -1.386719 -3.839844 -1.007812 -3.859375 C -0.632812 -3.878906 -0.730469 -4.074219 -0.832031 -4.117188 C -0.96875 -4.117188 -0.988281 -4.195312 -0.988281 -4.609375 C -0.988281 -7.65625 3.582031 -13.652344 9.871094 -13.652344 C 12.425781 -13.652344 13.808594 -12.542969 13.808594 -10.84375 C 13.808594 -7.398438 9.320312 -3.046875 5.699219 -2.949219 C 6.550781 -5.699219 7.636719 -8.707031 7.777344 -9.082031 C 7.992188 -9.714844 6.84375 -9.496094 6.570312 -9.121094 C 5.933594 -8.308594 2.96875 -5.835938 2.96875 -4.292969 C 2.96875 -3.363281 3.601562 -2.789062 4.472656 -2.53125 C 4.214844 -1.386719 4.054688 -0.355469 4.054688 0.316406 C 4.054688 1.523438 4.6875 2.039062 4.6875 1.285156 Z M 3.480469 -4.253906 C 3.480469 -5.363281 5.085938 -6.925781 6.035156 -7.875 C 5.539062 -6.589844 4.984375 -4.75 4.589844 -3.085938 C 3.957031 -3.265625 3.480469 -3.660156 3.480469 -4.253906 Z M 3.480469 -4.253906 "/></g></g></g><g fill="#fdfdfd" fill-opacity="1"><g transform="translate(159.082024, 112.089798)"><g><path d="M 0.414062 -1.425781 C 0.652344 -1.1875 0.792969 -1.363281 0.710938 -1.601562 C 0.496094 -2.234375 0.59375 -3.621094 1.464844 -6.035156 C 1.640625 -6.550781 0.574219 -6.230469 0.414062 -5.777344 C -0.496094 -3.304688 -0.160156 -2 0.414062 -1.425781 Z M 0.574219 -7.894531 C 0.574219 -7.597656 0.691406 -7.457031 0.871094 -7.457031 C 1.445312 -7.457031 2.078125 -8.171875 2.078125 -8.527344 C 2.078125 -9.042969 1.246094 -9.238281 0.929688 -8.824219 C 0.710938 -8.546875 0.574219 -8.113281 0.574219 -7.894531 Z M 0.574219 -7.894531 "/></g></g></g><g fill="#fdfdfd" fill-opacity="1"><g transform="translate(164.106091, 112.089798)"><g><path d="M 1.484375 -1.167969 C 3.027344 -1.167969 6.035156 -3.066406 7.101562 -5.34375 C 7.261719 -5.679688 7.082031 -5.976562 6.886719 -5.617188 C 5.777344 -3.601562 2.910156 -1.683594 1.523438 -1.683594 C 0.75 -1.683594 0.375 -2.117188 0.375 -3.144531 C 0.375 -4.847656 1.820312 -6.371094 2.492188 -6.371094 C 2.730469 -6.371094 2.632812 -5.835938 2.433594 -5.5 C 2.335938 -5.34375 3.125 -5.5 3.125 -6.253906 C 3.125 -6.570312 2.847656 -6.746094 2.453125 -6.746094 C 1.246094 -6.746094 -0.75 -5.144531 -0.75 -3.265625 C -0.75 -1.9375 0.117188 -1.167969 1.484375 -1.167969 Z M 1.484375 -1.167969 "/></g></g></g><g fill="#fdfdfd" fill-opacity="1"><g transform="translate(170.672985, 112.089798)"><g><path d="M 0.535156 -1.324219 C 1.683594 -1.324219 2.335938 -3.421875 2.214844 -4.332031 C 3.246094 -4.453125 4.15625 -3.9375 5.203125 -3.898438 C 6.171875 -3.878906 7.4375 -4.15625 8.171875 -5.34375 C 8.429688 -5.757812 8.171875 -5.933594 7.953125 -5.617188 C 7.140625 -4.453125 6.113281 -4.410156 5.066406 -4.453125 C 3.859375 -4.492188 2.730469 -5.085938 1.9375 -4.847656 C 1.742188 -4.789062 1.621094 -4.628906 1.683594 -4.371094 C 1.859375 -3.5625 1.34375 -1.761719 0.652344 -1.761719 C 0.515625 -1.761719 0.394531 -2 0.394531 -2.316406 C 0.394531 -3.660156 1.027344 -5.460938 2.136719 -6.371094 C 2.414062 -6.589844 2.53125 -6.726562 2.789062 -6.726562 C 3.066406 -6.726562 2.929688 -7.042969 2.414062 -7.042969 C 0.632812 -7.042969 -0.730469 -4.6875 -0.730469 -2.949219 C -0.730469 -2.15625 -0.335938 -1.324219 0.535156 -1.324219 Z M 0.535156 -1.324219 "/></g></g></g></svg>